{
	"asset": {
		"generator": "Blocks",
		"version": "1.0.4",
		"copyright": "Unknown"
	},
	"buffers": {
		"model": {
			"byteLength": 11928,
			"type": "arraybuffer",
			"uri": "model.bin"
		}
	},
	"accessors": {
		"accessor_position_m0-PolyPaper13_-28810": {
			"bufferView": "vec3BufferView",
			"byteOffset": 0,
			"byteStride": 12,
			"componentType": 5126,
			"count": 276,
			"max": [ -0.07002362, 1.72496, -0.7099668 ],
			"min": [ -0.3100236, 1.450014, -0.9499668 ],
			"type": "VEC3"
		 },
		"accessor_normal_m0-PolyPaper13_-28810": {
			"bufferView": "vec3BufferView",
			"byteOffset": 3312,
			"byteStride": 12,
			"componentType": 5126,
			"count": 276,
			"max": [ 0.9659258, 1, 0.965926 ],
			"min": [ -0.9659261, -1, -0.965926 ],
			"type": "VEC3"
		 },
		"accessor_color_m0-PolyPaper13_-28810": {
			"bufferView": "vec4BufferView",
			"byteOffset": 0,
			"byteStride": 16,
			"componentType": 5126,
			"count": 276,
			"max": [ 1, 1, 1, 1 ],
			"min": [ 1, 0.5960785, 0, 1 ],
			"type": "VEC4"
		 },
		"accessor_indices_0_m0-PolyPaper13_-28810": {
			"bufferView": "ushortBufferView",
			"byteOffset": 0,
			"byteStride": 0,
			"componentType": 5123,
			"count": 444,
			"max": [ 275 ],
			"min": [ 0 ],
			"type": "SCALAR"
		 }
	},
	"bufferViews": {
		"ushortBufferView": {
			"buffer": "model",
			"byteLength": 888,
			"byteOffset": 0,
			"target": 34963
		},
		"vec3BufferView": {
			"buffer": "model",
			"byteLength": 6624,
			"byteOffset": 888,
			"target": 34962
		},
		"vec4BufferView": {
			"buffer": "model",
			"byteLength": 4416,
			"byteOffset": 7512,
			"target": 34962
		}
	},
	"meshes": {
		"mesh_m0-PolyPaper13_-28810": {
			"name": "mesh_m0-PolyPaper13_-28810",
			"primitives": [
				{
					"attributes": {
						"POSITION": "accessor_position_m0-PolyPaper13_-28810",
						"NORMAL": "accessor_normal_m0-PolyPaper13_-28810",
						"COLOR": "accessor_color_m0-PolyPaper13_-28810"
					},
					"indices": "accessor_indices_0_m0-PolyPaper13_-28810",
					"material": "material_mat13",
					"mode": 4
				}
			]
		}
	},
	"shaders": {
		"vertex_mat13": {
			"type": 35633,
			"uri": "https://vr.google.com/shaders/w/vs.glsl"
		},
		"fragment_mat13": {
			"type": 35632,
			"uri": "https://vr.google.com/shaders/w/fs.glsl"
		}
	},
	"programs": {
		"program_mat13": {
			"attributes": [
				"a_position",
				"a_normal",
				"a_color"				
			],
			"vertexShader": "vertex_mat13",
			"fragmentShader": "fragment_mat13"
		}
	},
	"techniques": {
		"technique_mat13": {
			"program": "program_mat13",
			"extras": {"gvrss" : "https://vr.google.com/shaders/w/gvrss/paper.json"},
			"parameters": {
				"position": {
					"type": 35665,
					"semantic": "POSITION"
				},
				"normal": {
					"type": 35665,
					"semantic": "NORMAL"
				},
				"color": {
					"type": 35666,
					"semantic": "COLOR"
				},
				"modelViewMatrix": {
					"type": 35676,
					"semantic": "MODELVIEW"
				},
				"projectionMatrix": {
					"type": 35676,
					"semantic": "PROJECTION"
				},
				"normalMatrix": {
					"type": 35675,
					"semantic": "MODELVIEWINVERSETRANSPOSE"
				},
				"color": {
					"type": 35666
				},
				"roughness": {
					"type": 5126
				},
				"metallic": {
					"type": 5126
				},
				"light0Pos": {
					"type": 35666
				},
				"light0Color": {
					"type": 35666
				},
				"light1Pos": {
					"type": 35666
				},
				"light1Color": {
					"type": 35666
				}				
			},
			"attributes": {
				"a_position": "position",
				"a_normal": "normal",
				"a_color": "color"				
			},
			"uniforms": {
				"u_modelViewMatrix": "modelViewMatrix",
				"u_projectionMatrix": "projectionMatrix",
				"u_normalMatrix": "normalMatrix",
				"u_color": "color",
				"u_roughness": "roughness",
				"u_metallic": "metallic",
				"u_light0Pos": "light0Pos",
				"u_light0Color": "light0Color",
				"u_light1Pos": "light1Pos",
				"u_light1Color": "light1Color"				
			},
			"states": {
				"enable": [
					2929,
					2884
				],
				"functions": {
					"cullFace": [1029]
				}
			}
		}
	},
	"materials": {
		"material_mat13": {
			"technique": "technique_mat13",
			"values": {
				"color": [1, 0.5960785, 0, 1],
				"roughness": 0.72,
				"metallic": 0,
				"light0Pos": [-0.02, 4.11, -0.54, 0],
				"light0Color": [0.8, 0.8, 0.8, 0],
				"light1Pos": [0.02, -4.11, 0.54, 0],
				"light1Color": [0.64, 0.5647059, 0.5647059, 0]				
			},
			"name": "material_mat13"
		}
	},
	"nodes": {
		"node_MeshObject-1273637184-PolyPaper13": {
			"name": "node_MeshObject-1273637184-PolyPaper13",
			"meshes": [
				"mesh_m0-PolyPaper13_-28810"
			],
			"matrix": [1, 0, 0, 0, 0, 1, 0, 0, 0, 0, 1, 0, 0, 0, 0, 1]
		}
	},
	"scene": "defaultScene",
	"scenes": {
		"defaultScene": {
			"nodes": [
				"node_MeshObject-1273637184-PolyPaper13"
			],
			"extras": {

			}
		}
	}
}